<?xml version="1.0" standalone="no"?>
<!DOCTYPE svg PUBLIC "-//W3C//DTD SVG 20010904//EN"
 "http://www.w3.org/TR/2001/REC-SVG-20010904/DTD/svg10.dtd">
<svg version="1.0" xmlns="http://www.w3.org/2000/svg"
 width="430.000000pt" height="72.000000pt" viewBox="0 0 430.000000 72.000000"
 preserveAspectRatio="xMidYMid meet">

<g transform="translate(0.000000,72.000000) scale(0.100000,-0.100000)"
fill="#000000" stroke="none">
<path d="M90 698 c-64 -33 -90 -88 -90 -187 0 -102 26 -156 90 -189 39 -19 59
-22 171 -22 153 0 185 -9 198 -56 12 -45 0 -86 -30 -101 -16 -9 -84 -13 -216
-13 l-193 0 0 -65 0 -65 203 0 c274 0 321 15 362 112 22 53 20 172 -4 225 -31
67 -60 77 -242 83 -181 6 -199 13 -199 82 0 88 26 98 256 98 l174 0 0 60 0 60
-218 0 c-206 0 -220 -1 -262 -22z"/>
<path d="M830 699 c-58 -26 -87 -53 -115 -109 -30 -61 -45 -135 -45 -230 0
-149 29 -231 105 -298 59 -52 106 -62 280 -62 l135 0 0 65 0 65 -144 0 c-132
0 -145 2 -171 22 -33 26 -55 75 -55 123 l0 35 185 0 185 0 0 60 0 60 -186 0
-187 0 7 43 c9 52 28 82 69 107 27 17 51 20 165 20 l132 0 0 60 0 60 -157 0
c-137 0 -164 -3 -203 -21z"/>
<path d="M1445 704 c-91 -34 -149 -126 -166 -268 -20 -160 20 -311 99 -376 57
-47 116 -60 279 -60 l143 0 0 65 0 65 -140 0 c-217 0 -235 17 -235 220 0 107
3 132 22 172 32 70 55 78 218 78 l135 0 0 60 0 60 -157 -1 c-112 0 -170 -5
-198 -15z"/>
<path d="M1900 360 l0 -360 65 0 64 0 3 143 3 142 77 3 78 3 72 -146 73 -145
72 0 c40 0 73 3 73 6 0 3 -34 70 -75 148 -41 79 -75 146 -75 149 0 4 5 7 11 7
25 0 73 46 92 89 28 65 27 166 -5 229 -17 35 -34 53 -68 70 -42 21 -56 22
-252 22 l-208 0 0 -360z m369 229 c38 -13 51 -35 51 -87 0 -28 -7 -45 -26 -63
-24 -23 -33 -24 -142 -24 l-117 0 -3 93 -3 92 104 0 c57 0 118 -5 136 -11z"/>
<path d="M2709 706 c-105 -37 -162 -134 -175 -302 -15 -182 40 -318 151 -377
35 -19 60 -22 208 -25 l168 -4 -3 63 -3 64 -145 5 c-91 3 -153 10 -167 18 -30
16 -52 60 -60 117 l-6 45 192 0 191 0 0 60 0 60 -190 0 -191 0 7 38 c9 55 35
95 74 114 28 15 61 18 168 18 l132 0 0 60 0 60 -157 0 c-104 -1 -171 -5 -194
-14z"/>
<path d="M3110 660 l0 -60 105 0 105 0 0 -300 0 -300 65 0 65 0 2 298 3 297
103 3 102 3 0 59 0 60 -275 0 -275 0 0 -60z"/>
<path d="M3790 698 c-70 -35 -92 -88 -88 -205 4 -107 18 -135 88 -171 39 -19
59 -22 171 -22 124 0 176 -9 191 -33 13 -20 9 -92 -6 -113 -13 -18 -30 -19
-220 -22 l-206 -3 0 -65 0 -64 203 0 c274 0 321 15 362 112 22 54 20 172 -5
226 -30 67 -73 82 -236 82 -72 0 -145 5 -162 11 -39 13 -55 54 -41 104 16 57
47 65 254 65 l175 0 0 60 0 60 -218 0 c-206 0 -220 -1 -262 -22z"/>
</g>
</svg>
